# xmcd
#
# Track frame offsets: 
#        150
#        17507
#        31187
#        47888
#        59767
#        74669
#        89428
#        105944
#        123603
#        140449
#        156325
#
# Disc length: 2271 seconds
#
# Revision: 5
# Processed by: cddbd v1.5.1PL0 Copyright (c) Steve Scherf et al.
# Submitted via: ExactAudioCopy v0.95b2
#
DISCID=9a08dd0b
DTITLE=Wilkinsons - Nothing but Love
DYEAR=1998
DGENRE=
TTITLE0=26 cents
TTITLE1=Boy Oh Boy
TTITLE2=Fly
TTITLE3=Don't I Have A Heart
TTITLE4=The Yodelin' Blues
TTITLE5=Nothing But Love (Standing In The Way)
TTITLE6=The Word
TTITLE7=Williamstown
TTITLE8=Then There's You
TTITLE9=Back On My Feet
TTITLE10=One Faithful Heart
EXTD=
EXTT0=
EXTT1=
EXTT2=
EXTT3=
EXTT4=
EXTT5=
EXTT6=
EXTT7=
EXTT8=
EXTT9=
EXTT10=
PLAYORDER=
